<svg fill="#77C2A8" xmlns="http://www.w3.org/2000/svg" xmlns:xlink="http://www.w3.org/1999/xlink" version="1.1" x="0px" y="0px" viewBox="0 0 100 100" style="enable-background:new 0 0 100 100;" xml:space="preserve"><g><g><path d="M49.8,82.1l-0.3-0.2c-9.1-7.1-14.3-17.5-14.3-28.7s5.2-21.6,14.3-28.7l0.3-0.2l0.3,0.2c9.1,7.1,14.3,17.5,14.3,28.7    s-5.2,21.6-14.3,28.7L49.8,82.1z M49.8,25.5c-8.7,6.9-13.6,16.9-13.6,27.7c0,10.7,5,20.8,13.6,27.7c8.7-6.9,13.6-16.9,13.6-27.7    C63.4,42.4,58.4,32.4,49.8,25.5z"></path></g><g><path d="M53.1,82.1c-1.1,0-2.2-0.1-3.3-0.2l-0.4,0l0-0.4c-1-9.2,2.4-18.2,9.3-24.8c6.9-6.5,16.4-9.8,26.1-8.8l0.4,0l0,0.4    c1,9.2-2.4,18.2-9.3,24.8C69.8,78.9,61.7,82.1,53.1,82.1z M50.4,81c9.3,0.8,18.3-2.4,24.9-8.6c6.6-6.2,9.9-14.8,9.1-23.5    c-9.3-0.8-18.3,2.4-24.9,8.6l0,0C52.9,63.7,49.6,72.2,50.4,81z"></path></g><g><path d="M46.4,82.1c-8.5,0-16.7-3.2-22.8-9c-6.9-6.5-10.3-15.6-9.3-24.8l0-0.4l0.4,0c9.7-0.9,19.2,2.3,26.1,8.8h0    c6.9,6.5,10.3,15.6,9.3,24.8l0,0.4l-0.4,0C48.6,82.1,47.5,82.1,46.4,82.1z M15.2,48.9c-0.8,8.8,2.5,17.3,9.1,23.5    c6.6,6.2,15.6,9.4,24.9,8.6c0.8-8.8-2.5-17.3-9.1-23.5h0C33.5,51.2,24.5,48.1,15.2,48.9z"></path></g><g><path d="M31.9,90c-7.1,0-13.7-3-18.2-8.2l-0.3-0.3l0.3-0.3c4.5-5.2,11.1-8.2,18.2-8.2c7.1,0,13.7,3,18.2,8.2l0.3,0.3l-0.3,0.3    C45.6,87,39,90,31.9,90z M14.8,81.4c4.3,4.8,10.5,7.5,17.1,7.5s12.9-2.7,17.1-7.5c-4.3-4.8-10.5-7.5-17.1-7.5S19.1,76.7,14.8,81.4    z"></path></g><g><path d="M67.6,90c-7.1,0-13.7-3-18.2-8.2l-0.3-0.3l0.3-0.3c4.5-5.2,11.1-8.2,18.2-8.2s13.7,3,18.2,8.2l0.3,0.3l-0.3,0.3    C81.3,87,74.6,90,67.6,90z M50.4,81.4c4.3,4.8,10.5,7.5,17.1,7.5c6.6,0,12.9-2.7,17.1-7.5c-4.3-4.8-10.5-7.5-17.1-7.5    C60.9,73.9,54.7,76.7,50.4,81.4z"></path></g></g><g><g><path d="M49.8,17.3c-0.9,0-1.9-0.4-2.6-1.1c-1.4-1.4-1.4-3.7,0-5.1c1.4-1.4,3.7-1.4,5.1,0c0.7,0.7,1.1,1.6,1.1,2.6    s-0.4,1.9-1.1,2.6C51.6,16.9,50.7,17.3,49.8,17.3z M49.8,11c-0.7,0-1.4,0.3-1.8,0.8c-1,1-1,2.7,0,3.7s2.7,1,3.7,0    c0.5-0.5,0.8-1.1,0.8-1.8s-0.3-1.4-0.8-1.8S50.4,11,49.8,11z"></path></g><g><path d="M59,22.4c-1.3,0-2.4-1.1-2.4-2.4s1.1-2.4,2.4-2.4s2.4,1.1,2.4,2.4S60.4,22.4,59,22.4z M59,18.6c-0.8,0-1.4,0.6-1.4,1.4    s0.6,1.4,1.4,1.4s1.4-0.6,1.4-1.4S59.8,18.6,59,18.6z"></path></g><g><path d="M40.5,22.4c-1.3,0-2.4-1.1-2.4-2.4s1.1-2.4,2.4-2.4s2.4,1.1,2.4,2.4S41.8,22.4,40.5,22.4z M40.5,18.6    c-0.8,0-1.4,0.6-1.4,1.4s0.6,1.4,1.4,1.4s1.4-0.6,1.4-1.4S41.2,18.6,40.5,18.6z"></path></g></g></svg>